PathFileType	4	(X/Y/Z)	C:\Users\italobelli\Desktop\GitHub\PTbot_officialCBL\Personal_Results\SHRUG21_noisy2.trc
DataRate	CameraRate	NumFrames	NumMarkers	Units	OrigDataRate	OrigDataStartFrame	OrigNumFrames
112.250000	112.250000	30	9	m	112.250000	226	450
Frame#	Time		gu		centelbow		EpL		centpxt8		centijc7		ij		ts		aa		ai
			X1	Y1	Z1	X2	Y2	Z2	X3	Y3	Z3	X4	Y4	Z4	X5	Y5	Z5	X6	Y6	Z6	X7	Y7	Z7	X8	Y8	Z8	X9	Y9	Z9

226	2.0045	-0.097974	0.050812	0.15949	-0.12732	-0.19993	0.20874	-0.11618	-0.1911	0.23768	-0.046816	-0.15316	-0.008669	-0.046816	0.031938	-0.008669	0	0	0	-0.13641	0.055334	0.030762	-0.12902	0.085476	0.14592	-0.15817	-0.050595	0.065282
227	2.0134	-0.098043	0.05081	0.1595	-0.12739	-0.20001	0.20863	-0.11628	-0.19119	0.23757	-0.046816	-0.15316	-0.008669	-0.046816	0.031938	-0.008669	0	0	0	-0.13642	0.055344	0.030755	-0.12911	0.085454	0.14593	-0.15819	-0.050595	0.065239
228	2.0223	-0.09811	0.050808	0.15952	-0.12746	-0.20007	0.20851	-0.11637	-0.19126	0.23746	-0.046816	-0.15316	-0.008669	-0.046816	0.031938	-0.008669	0	0	0	-0.13643	0.055354	0.030749	-0.12919	0.085435	0.14594	-0.15822	-0.050594	0.065199
229	2.0312	-0.098176	0.050804	0.15954	-0.12753	-0.20012	0.2084	-0.11647	-0.19131	0.23735	-0.046816	-0.15316	-0.008669	-0.046816	0.031938	-0.008669	0	0	0	-0.13644	0.055365	0.030743	-0.12928	0.085416	0.14595	-0.15825	-0.050593	0.065162
230	2.0401	-0.098242	0.0508	0.15955	-0.1276	-0.20016	0.20828	-0.11656	-0.19136	0.23724	-0.046816	-0.15316	-0.008669	-0.046816	0.031938	-0.008669	0	0	0	-0.13644	0.055377	0.030737	-0.12936	0.085399	0.14595	-0.15827	-0.05059	0.065127
231	2.049	-0.098306	0.050796	0.15957	-0.12767	-0.20018	0.20817	-0.11666	-0.19138	0.23714	-0.046816	-0.15316	-0.008669	-0.046816	0.031938	-0.008669	0	0	0	-0.13645	0.055389	0.030731	-0.12944	0.085382	0.14596	-0.1583	-0.050587	0.065095
232	2.0579	-0.098369	0.05079	0.15958	-0.12774	-0.20019	0.20805	-0.11675	-0.1914	0.23703	-0.046816	-0.15316	-0.008669	-0.046816	0.031938	-0.008669	0	0	0	-0.13646	0.055402	0.030725	-0.12952	0.085367	0.14597	-0.15832	-0.050583	0.065065
233	2.0668	-0.098431	0.050784	0.1596	-0.1278	-0.20018	0.20794	-0.11684	-0.1914	0.23692	-0.046816	-0.15316	-0.008669	-0.046816	0.031938	-0.008669	0	0	0	-0.13646	0.055416	0.03072	-0.1296	0.085353	0.14598	-0.15834	-0.050578	0.065036
234	2.0757	-0.098493	0.050778	0.15961	-0.12787	-0.20017	0.20782	-0.11693	-0.19139	0.23681	-0.046816	-0.15316	-0.008669	-0.046816	0.031938	-0.008669	0	0	0	-0.13647	0.05543	0.030714	-0.12967	0.08534	0.14598	-0.15836	-0.050572	0.06501
235	2.0846	-0.098553	0.05077	0.15963	-0.12794	-0.20014	0.20771	-0.11701	-0.19137	0.2367	-0.046816	-0.15316	-0.008669	-0.046816	0.031938	-0.008669	0	0	0	-0.13647	0.055445	0.030709	-0.12975	0.085328	0.14599	-0.15838	-0.050565	0.064986
236	2.0935	-0.098611	0.050762	0.15964	-0.128	-0.20011	0.20759	-0.1171	-0.19134	0.23659	-0.046816	-0.15316	-0.008669	-0.046816	0.031938	-0.008669	0	0	0	-0.13648	0.05546	0.030704	-0.12982	0.085317	0.146	-0.15839	-0.050558	0.064963
237	2.1024	-0.098669	0.050753	0.15966	-0.12807	-0.20006	0.20748	-0.11718	-0.1913	0.23648	-0.046816	-0.15316	-0.008669	-0.046816	0.031938	-0.008669	0	0	0	-0.13648	0.055476	0.0307	-0.12989	0.085307	0.14601	-0.15841	-0.05055	0.064942
238	2.1114	-0.098725	0.050743	0.15967	-0.12813	-0.20001	0.20736	-0.11726	-0.19125	0.23637	-0.046816	-0.15316	-0.008669	-0.046816	0.031938	-0.008669	0	0	0	-0.13649	0.055493	0.030696	-0.12996	0.085297	0.14602	-0.15843	-0.050541	0.064923
239	2.1203	-0.09878	0.050733	0.15969	-0.12819	-0.19995	0.20724	-0.11734	-0.19119	0.23626	-0.046816	-0.15316	-0.008669	-0.046816	0.031938	-0.008669	0	0	0	-0.13649	0.055509	0.030692	-0.13003	0.085288	0.14602	-0.15844	-0.050532	0.064904
240	2.1292	-0.098833	0.050722	0.1597	-0.12825	-0.19988	0.20713	-0.11742	-0.19112	0.23614	-0.046816	-0.15316	-0.008669	-0.046816	0.031938	-0.008669	0	0	0	-0.13649	0.055526	0.030688	-0.1301	0.08528	0.14603	-0.15846	-0.050522	0.064887
241	2.1381	-0.098885	0.050709	0.15971	-0.12832	-0.1998	0.20701	-0.1175	-0.19105	0.23603	-0.046816	-0.15316	-0.008669	-0.046816	0.031938	-0.008669	0	0	0	-0.1365	0.055544	0.030685	-0.13016	0.085272	0.14604	-0.15847	-0.050512	0.064872
242	2.147	-0.098936	0.050696	0.15973	-0.12838	-0.19971	0.20689	-0.11757	-0.19097	0.23591	-0.046816	-0.15316	-0.008669	-0.046816	0.031938	-0.008669	0	0	0	-0.1365	0.055561	0.030681	-0.13022	0.085265	0.14605	-0.15848	-0.050502	0.064857
243	2.1559	-0.098985	0.050683	0.15974	-0.12843	-0.19962	0.20677	-0.11764	-0.19088	0.2358	-0.046816	-0.15316	-0.008669	-0.046816	0.031938	-0.008669	0	0	0	-0.1365	0.055579	0.030679	-0.13029	0.085258	0.14606	-0.15849	-0.050491	0.064843
244	2.1648	-0.099033	0.050668	0.15976	-0.12849	-0.19953	0.20665	-0.11771	-0.19079	0.23568	-0.046816	-0.15316	-0.008669	-0.046816	0.031938	-0.008669	0	0	0	-0.13651	0.055598	0.030676	-0.13034	0.085251	0.14607	-0.15851	-0.050479	0.06483
245	2.1737	-0.099079	0.050652	0.15977	-0.12855	-0.19943	0.20653	-0.11778	-0.19069	0.23556	-0.046816	-0.15316	-0.008669	-0.046816	0.031938	-0.008669	0	0	0	-0.13651	0.055616	0.030674	-0.1304	0.085245	0.14607	-0.15852	-0.050467	0.064817
246	2.1826	-0.099123	0.050636	0.15979	-0.1286	-0.19932	0.20641	-0.11784	-0.19059	0.23544	-0.046816	-0.15316	-0.008669	-0.046816	0.031938	-0.008669	0	0	0	-0.13651	0.055635	0.030673	-0.13045	0.085239	0.14608	-0.15853	-0.050455	0.064806
247	2.1915	-0.099166	0.050618	0.1598	-0.12866	-0.19921	0.20629	-0.1179	-0.19049	0.23532	-0.046816	-0.15316	-0.008669	-0.046816	0.031938	-0.008669	0	0	0	-0.13651	0.055653	0.030671	-0.13051	0.085233	0.14609	-0.15854	-0.050443	0.064794
248	2.2004	-0.099207	0.0506	0.15981	-0.12871	-0.1991	0.20617	-0.11796	-0.19038	0.2352	-0.046816	-0.15316	-0.008669	-0.046816	0.031938	-0.008669	0	0	0	-0.13652	0.055672	0.03067	-0.13056	0.085227	0.1461	-0.15855	-0.050431	0.064783
249	2.2094	-0.099246	0.05058	0.15983	-0.12876	-0.19899	0.20604	-0.11802	-0.19027	0.23508	-0.046816	-0.15316	-0.008669	-0.046816	0.031938	-0.008669	0	0	0	-0.13652	0.055691	0.03067	-0.1306	0.085222	0.14611	-0.15856	-0.050418	0.064772
250	2.2183	-0.099283	0.05056	0.15984	-0.12881	-0.19887	0.20592	-0.11808	-0.19016	0.23495	-0.046816	-0.15316	-0.008669	-0.046816	0.031938	-0.008669	0	0	0	-0.13652	0.05571	0.03067	-0.13065	0.085216	0.14612	-0.15857	-0.050406	0.064761
251	2.2272	-0.099319	0.050539	0.15986	-0.12886	-0.19876	0.20579	-0.11813	-0.19004	0.23483	-0.046816	-0.15316	-0.008669	-0.046816	0.031938	-0.008669	0	0	0	-0.13652	0.055729	0.03067	-0.13069	0.08521	0.14613	-0.15858	-0.050393	0.06475
252	2.2361	-0.099352	0.050516	0.15987	-0.12891	-0.19864	0.20566	-0.11818	-0.18993	0.2347	-0.046816	-0.15316	-0.008669	-0.046816	0.031938	-0.008669	0	0	0	-0.13652	0.055748	0.030671	-0.13073	0.085204	0.14614	-0.15859	-0.05038	0.064739
253	2.245	-0.099384	0.050493	0.15989	-0.12895	-0.19853	0.20553	-0.11822	-0.18982	0.23457	-0.046816	-0.15316	-0.008669	-0.046816	0.031938	-0.008669	0	0	0	-0.13653	0.055767	0.030672	-0.13077	0.085198	0.14615	-0.1586	-0.050367	0.064727
254	2.2539	-0.099414	0.050468	0.1599	-0.12899	-0.19841	0.2054	-0.11826	-0.18971	0.23444	-0.046816	-0.15316	-0.008669	-0.046816	0.031938	-0.008669	0	0	0	-0.13653	0.055785	0.030674	-0.1308	0.085192	0.14616	-0.15861	-0.050354	0.064715
255	2.2628	-0.099441	0.050443	0.15992	-0.12903	-0.1983	0.20527	-0.11831	-0.1896	0.23431	-0.046816	-0.15316	-0.008669	-0.046816	0.031938	-0.008669	0	0	0	-0.13653	0.055804	0.030676	-0.13084	0.085185	0.14617	-0.15862	-0.050342	0.064703
